<?xml version="1.0" encoding="utf-8"?>
<!-- Generator: Adobe Illustrator 22.0.0, SVG Export Plug-In . SVG Version: 6.00 Build 0)  -->
<svg version="1.1" id="Layer_1" xmlns="http://www.w3.org/2000/svg" xmlns:xlink="http://www.w3.org/1999/xlink" x="0px" y="0px"
	 viewBox="0 0 64 64" style="enable-background:new 0 0 64 64;" xml:space="preserve">
<style type="text/css">
	.st0{fill:#4F4F4F;}
	.st1{fill:#D3D3D3;}
	.st2{fill:#D8D8D8;}
	.st3{fill:#727272;}
	.st4{fill:#969696;}
	.st5{stroke:#FFFFFF;stroke-miterlimit:10;}
	.st6{stroke:#0C0C0C;stroke-miterlimit:10;}
	.st7{fill:#4F4F4F;stroke:#302F13;stroke-miterlimit:10;}
</style>
<g>
	<g>
		<polygon class="st0" points="42.7,-341.7 42.7,-207.2 60.9,-197.1 60.9,-291 107.2,-171.8 129.6,-160.2 129.6,-297.5 
			106.2,-309.4 110.1,-208.9 63.2,-331.3 		"/>
		<polygon class="st1" points="60.9,-197.1 76.2,-205.9 76.2,-251.6 60.9,-291 		"/>
		<polygon class="st1" points="63.2,-331.3 110.1,-208.9 109.1,-233.1 76.4,-324.6 		"/>
	</g>
	<g>
		<polygon class="st2" points="191.8,-360.1 191.8,-348.6 172.3,-339.4 136.6,-358.7 92.3,-334.5 80.8,-340.5 136.6,-370.1 
			173.3,-351.9 		"/>
		<polygon class="st1" points="156.1,-321.2 156.1,-301.1 166,-295.1 166.5,-315.8 225.1,-344 213.3,-350.1 		"/>
		<polygon class="st1" points="200.6,-311.9 200.6,-226.1 149,-202.5 149.3,-189 212,-219.5 211,-316.9 		"/>
	</g>
	<g>
		<polyline class="st3" points="146.5,-305.7 129.5,-297.6 129.6,-297.5 129.6,-160.2 225.1,-209 225.1,-344 166.5,-315.8 
			166,-295.1 211,-316.9 212,-219.5 149.3,-189 146.8,-305.9 		"/>
		<polygon class="st4" points="136.6,-369.9 172.3,-351.4 173,-351.7 136.7,-370 		"/>
		<path class="st4" d="M42.7-341.7"/>
		<line class="st4" x1="129.4" y1="-297.5" x2="129.5" y2="-297.6"/>
		<polyline class="st4" points="135.6,-387.8 42.7,-341.7 129.5,-297.6 146.8,-305.9 80.8,-340.5 136.4,-370 136.6,-369.9 
			136.7,-370 172.3,-351.4 191.8,-360.1 		"/>
	</g>
</g>
<g>
	<g>
		<polygon class="st0" points="15.2,-109.4 15.2,-37.4 25,-32 25,-82.2 49.7,-18.5 61.7,-12.3 61.7,-85.7 49.2,-92.1 51.3,-38.3 
			26.2,-103.8 		"/>
		<polygon class="st1" points="25,-32 33.1,-36.7 33.1,-61.2 25,-82.2 		"/>
		<polygon class="st1" points="26.2,-103.8 51.3,-38.3 50.7,-51.3 33.2,-100.2 		"/>
	</g>
	<g>
		<polygon class="st2" points="94.9,-119.2 95,-113.1 84.5,-108.1 65.4,-118.4 41.8,-105.5 35.6,-108.7 65.4,-124.5 85.1,-114.8 		
			"/>
		<polygon class="st1" points="75.9,-98.4 75.9,-87.7 81.2,-84.4 81.4,-95.5 112.8,-110.6 106.4,-113.8 		"/>
		<polygon class="st1" points="99.7,-93.4 99.7,-47.5 72.1,-34.9 72.2,-27.7 105.8,-44 105.2,-96.1 		"/>
	</g>
	<g>
		<polyline class="st3" points="70.7,-90.1 61.6,-85.7 61.7,-85.7 61.7,-12.3 112.8,-38.4 112.8,-110.6 81.4,-95.5 81.2,-84.4 
			105.2,-96.1 105.8,-44 72.2,-27.7 70.9,-90.2 		"/>
		<polygon class="st4" points="65.4,-124.4 84.5,-114.6 84.9,-114.7 65.5,-124.5 		"/>
		<path class="st4" d="M15.2-109.4"/>
		<line class="st4" x1="61.6" y1="-85.7" x2="61.6" y2="-85.7"/>
		<polyline class="st4" points="64.9,-134 15.2,-109.4 61.6,-85.7 70.9,-90.2 35.6,-108.7 65.3,-124.5 65.4,-124.4 65.5,-124.5 
			84.5,-114.6 94.9,-119.2 		"/>
	</g>
</g>
<g>
	<g>
		<polygon class="st0" points="8.7,15 8.7,51 13.6,53.7 13.6,28.5 26,60.4 32,63.5 32,26.8 25.7,23.6 26.8,50.5 14.2,17.8 		"/>
		<polygon class="st1" points="13.6,53.7 17.7,51.3 17.7,39.1 13.6,28.5 		"/>
		<polygon class="st1" points="14.2,17.8 26.8,50.5 26.5,44 17.7,19.5 		"/>
	</g>
	<g>
		<polygon class="st2" points="48.6,10 48.6,13.1 43.4,15.6 33.8,10.4 22,16.9 18.9,15.3 33.9,7.4 43.7,12.2 		"/>
		<polygon class="st1" points="39.1,20.5 39.1,25.8 41.7,27.4 41.9,21.9 57.5,14.3 54.4,12.7 		"/>
		<polygon class="st1" points="51,22.9 51,45.9 37.2,52.2 37.3,55.8 54,47.6 53.8,21.6 		"/>
	</g>
	<g>
		<polyline class="st3" points="36.5,24.6 32,26.8 32,26.8 32,63.5 57.5,50.5 57.5,14.3 41.9,21.9 41.7,27.4 53.8,21.6 54,47.6 
			37.3,55.8 36.6,24.5 		"/>
		<polygon class="st4" points="33.8,7.4 43.4,12.4 43.6,12.3 33.9,7.4 		"/>
		<path class="st4" d="M8.7,15"/>
		<line class="st4" x1="31.9" y1="26.8" x2="32" y2="26.8"/>
		<polyline class="st4" points="33.6,2.6 8.7,15 32,26.8 36.6,24.5 18.9,15.3 33.8,7.4 33.8,7.4 33.9,7.4 43.4,12.4 48.6,10 		"/>
	</g>
</g>
<path class="st5" d="M132-456.1"/>
<path class="st6" d="M208.4-655.9"/>
<path class="st6" d="M110.9-706.1"/>
<path class="st7" d="M1257.5-655.1"/>
<path class="st7" d="M255.7-492.1"/>
<g>
	<g>
		<polygon class="st0" points="58.6,-859.7 58.6,-568.4 97.9,-546.6 97.9,-750 198.2,-491.9 246.7,-466.7 246.7,-764 196,-789.8 
			204.4,-572.2 102.9,-837.1 		"/>
		<polygon class="st1" points="97.9,-546.6 131.1,-565.8 131.1,-664.7 97.9,-750 		"/>
		<polygon class="st1" points="102.9,-837.1 204.4,-572.2 202.3,-624.6 131.4,-822.7 		"/>
	</g>
	<g>
		<polygon class="st2" points="381.3,-899.6 381.3,-874.7 339.2,-854.8 261.7,-896.4 165.9,-844.1 141.1,-857.2 261.9,-921.2 
			341.3,-881.8 		"/>
		<polygon class="st1" points="304.1,-815.3 304.1,-771.9 325.5,-758.9 326.6,-803.6 453.5,-864.8 427.8,-877.9 		"/>
		<polygon class="st1" points="400.4,-795.2 400.4,-609.4 288.8,-558.4 289.4,-529.2 425,-595.2 422.9,-806.1 		"/>
	</g>
	<g>
		<polyline class="st3" points="283.3,-781.9 246.4,-764.2 246.7,-764 246.7,-466.7 453.5,-572.5 453.5,-864.8 326.6,-803.6 
			325.5,-758.9 422.9,-806.1 425,-595.2 289.4,-529.2 283.9,-782.2 		"/>
		<polygon class="st4" points="261.7,-920.8 339.2,-880.8 340.6,-881.5 262,-921 		"/>
		<path class="st4" d="M58.6-859.7"/>
		<line class="st4" x1="246.1" y1="-764" x2="246.4" y2="-764.2"/>
		<polyline class="st4" points="259.6,-959.5 58.6,-859.7 246.4,-764.2 283.9,-782.2 141.1,-857.2 261.4,-921 261.7,-920.8 
			262,-921 339.2,-880.8 381.3,-899.6 		"/>
	</g>
</g>
<path class="st7" d="M255.7-186"/>
</svg>
